<svg width="100%" height="100%" viewBox="0 0 1440 320" xmlns="http://www.w3.org/2000/svg">
  <path fill="#007bff" d="M0,96L30,106.7C60,117,120,139,180,160C240,181,300,203,360,213.3C420,224,480,224,540,213.3C600,203,660,181,720,160C780,139,840,117,900,106.7C960,96,1020,96,1080,128C1140,160,1200,224,1260,245.3C1320,267,1380,245,1410,234.7L1440,224L1440,320L1410,320C1380,320,1320,320,1260,320C1200,320,1140,320,1080,320C1020,320,960,320,900,320C840,320,780,320,720,320C660,320,600,320,540,320C480,320,420,320,360,320C300,320,240,320,180,320C120,320,60,320,30,320H0Z"></path>
</svg>